<svg xml:space="preserve" style="enable-background:new 0 0 209.14 22;" viewBox="0 0 209.14 22" height="22px" width="209.14px" y="0px" x="0px" class="svg svg--logo-ua" version="1.1">
    <g class="svg__group">
        <path d="M0,22V0h4.39v17.61h13.19V0h4.39v22H0z M42.92,13.19V22h-4.39v-8.81h-8.81V22h-4.39V0h21.97
        v13.19H42.92z M42.92,4.42H29.73v4.39h13.19V4.42z M50.32,22v-4.39h2.18V4.42h-2.18V0h21.97v22H50.32z M67.9,4.42H56.92v4.39H67.9
        V4.42z M67.9,13.19H56.92v4.42H67.9V13.19z M93.25,22v-8.81H80.05V22h-4.39V0h21.97v22H93.25z M93.25,4.42H80.05v4.39h13.19V4.42z
        M118.59,22V4.42H105.4V22h-4.39V0h21.97v22H118.59z M154.06,22v-8.81h-13.19V22h-4.39V0h21.97v22H154.06z M154.06,4.42h-13.19v4.39
        h13.19V4.42z M161.83,22V0h21.97v4.42h-17.58v13.19h13.19v-4.42h-4.39V8.81h8.77V22H161.83z M187.17,22V0h21.97v4.42h-17.58v4.39
        h17.58v4.39h-17.58v4.42h17.58V22H187.17z" class="svg__group__path"></path>
    </g>
</svg>
