<svg xml:space="preserve" style="enable-background:new 0 0 130.16 25.79;" viewBox="0 0 130.16 25.79" height="25.79px" width="130.16px" y="0px" x="0px" class="svg svg--logo-ahs" version="1.1">
    <g class="svg__group">
        <path d="M126.46,4.07l-6.75,9h-3.04l6.72-9H126.46z M112.94,17.22h17.22V0h-17.22V17.22z M115.34,2.38
        h12.42v12.47h-12.42V2.38z" class="svg__group__path"></path>
        <polygon points="3.24,22.08 3.24,22.67 2.09,22.67 2.09,25.71 1.27,25.71 1.27,22.67 0.12,22.67
        0.12,22.08 	" class="svg__group__path"></polygon>

        <path d="M4.41,22.08v1.33c0.17-0.23,0.37-0.39,0.81-0.39c0.65,0,0.88,0.46,0.88,0.93v1.75H5.35v-1.62
        c0-0.3-0.15-0.56-0.43-0.56c-0.27,0-0.52,0.26-0.52,0.6v1.57H3.65v-3.63H4.41z" class="svg__group__path"></path>
        <path d="M7.97,23.5c-0.34,0-0.56,0.26-0.54,0.58h1.01C8.44,23.73,8.27,23.5,7.97,23.5 M7.94,25.79
        c-0.88,0-1.3-0.58-1.3-1.34c0-0.83,0.51-1.44,1.33-1.44c0.71,0,1.14,0.48,1.21,1.01c0.03,0.15,0.02,0.38,0.02,0.55H7.41
        c-0.04,0.46,0.23,0.73,0.5,0.73c0.3,0,0.46-0.13,0.52-0.42h0.8C9.07,25.48,8.61,25.79,7.94,25.79" class="svg__group__path"></path>

        <rect height="3.63" width="0.8" class="svg__group__path" y="22.08" x="11.24"></rect>

        <path d="M14.51,25.71v-1.72c0-0.35-0.3-0.47-0.48-0.44c-0.22,0.03-0.5,0.21-0.5,0.48v1.68h-0.74
        v-2.36c0,0-0.01-0.17-0.03-0.26h0.72l0.03,0.34c0.18-0.29,0.59-0.42,0.86-0.42c0.54,0,0.89,0.3,0.89,0.88v1.81H14.51z" class="svg__group__path"></path>
        <path d="M17.54,25.68c-0.44,0.08-0.76,0.07-0.96-0.01c-0.18-0.07-0.39-0.25-0.39-0.53v-1.55h-0.56
        v-0.5h0.56v-0.47l0.71-0.37v0.84h0.59v0.5H16.9v1.29c0,0.37,0.41,0.34,0.64,0.26V25.68z" class="svg__group__path"></path>
        <path d="M19.2,23.5c-0.34,0-0.56,0.26-0.54,0.58h1.01C19.67,23.73,19.5,23.5,19.2,23.5 M19.16,25.79
        c-0.88,0-1.3-0.58-1.3-1.34c0-0.83,0.51-1.44,1.33-1.44c0.71,0,1.14,0.48,1.21,1.01c0.03,0.15,0.02,0.38,0.02,0.55h-1.79
        c-0.04,0.46,0.23,0.73,0.5,0.73c0.3,0,0.46-0.13,0.52-0.42h0.8C20.29,25.48,19.83,25.79,19.16,25.79" class="svg__group__path"></path>
        <path d="M21.99,23.83c-0.1,0.08-0.25,0.23-0.25,0.52v1.35h-0.74v-2.12c0,0,0-0.29-0.03-0.5h0.71
        c0,0,0.02,0.28,0.03,0.48c0.19-0.43,0.46-0.46,0.86-0.46v0.61C22.55,23.72,22.21,23.66,21.99,23.83" class="svg__group__path"></path>
        <path d="M24.71,25.71v-1.72c0-0.35-0.29-0.47-0.48-0.44c-0.22,0.03-0.5,0.21-0.5,0.48v1.68h-0.74
        v-2.36c0,0-0.01-0.17-0.03-0.26h0.72l0.02,0.34c0.18-0.29,0.59-0.42,0.86-0.42c0.54,0,0.89,0.3,0.89,0.88v1.81H24.71z" class="svg__group__path"></path>
        <path d="M27.69,24.51H27.5c-0.63-0.02-0.81,0.22-0.8,0.44c0,0.21,0.19,0.39,0.48,0.36
        c0.2-0.02,0.49-0.16,0.5-0.38V24.51z M27.79,25.71c0,0-0.03-0.17-0.03-0.31c-0.22,0.27-0.54,0.38-0.84,0.37
        c-0.59-0.01-0.96-0.3-0.96-0.81c0-0.54,0.44-0.86,1.41-0.86h0.3v-0.28c0-0.33-0.23-0.39-0.44-0.38c-0.24,0-0.44,0.14-0.41,0.45
        h-0.74c-0.05-0.57,0.44-0.88,1.21-0.87c0.53,0.01,1.12,0.16,1.12,0.81v1.39c0.01,0.24,0.05,0.49,0.05,0.49H27.79z" class="svg__group__path"></path>
        <path d="M30.71,25.68c-0.44,0.08-0.76,0.07-0.96-0.01c-0.17-0.07-0.39-0.25-0.39-0.53v-1.55h-0.56
        v-0.5h0.56v-0.47l0.71-0.37v0.84h0.59v0.5h-0.59v1.29c0,0.37,0.41,0.34,0.63,0.26V25.68z" class="svg__group__path"></path>

        <path d="M31.23,23.09h0.75v2.62h-0.75V23.09z M31.23,22h0.75v0.65h-0.75V22z" class="svg__group__path"></path>

        <path d="M33.9,23.53c-0.48,0-0.6,0.5-0.6,0.95c0,0.39,0.15,0.79,0.56,0.8
        c0.38,0.01,0.62-0.32,0.62-0.91C34.48,23.95,34.33,23.53,33.9,23.53 M33.87,25.78c-0.9,0-1.33-0.57-1.33-1.39
        c0-0.88,0.64-1.37,1.39-1.37c0.74,0,1.3,0.52,1.3,1.33C35.23,25.4,34.55,25.78,33.87,25.78" class="svg__group__path"></path>
        <path d="M37.48,25.71v-1.72c0-0.35-0.29-0.47-0.48-0.44c-0.22,0.03-0.5,0.21-0.5,0.48v1.68h-0.74
        v-2.36c0,0-0.01-0.17-0.03-0.26h0.72l0.03,0.34c0.18-0.29,0.59-0.42,0.86-0.42c0.54,0,0.89,0.3,0.89,0.88v1.81H37.48z" class="svg__group__path"></path>
        <path d="M40.46,24.51h-0.19c-0.63-0.02-0.8,0.22-0.79,0.44c0,0.21,0.19,0.39,0.48,0.36
        c0.2-0.02,0.48-0.16,0.5-0.38V24.51z M40.56,25.71c0,0-0.03-0.17-0.03-0.31c-0.22,0.27-0.54,0.38-0.84,0.37
        c-0.59-0.01-0.95-0.3-0.95-0.81c0-0.54,0.44-0.86,1.41-0.86h0.3v-0.28c0-0.33-0.23-0.39-0.44-0.38c-0.24,0-0.44,0.14-0.41,0.45
        h-0.74c-0.05-0.57,0.44-0.88,1.21-0.87c0.53,0.01,1.12,0.16,1.12,0.81v1.39c0.01,0.24,0.05,0.49,0.05,0.49H40.56z" class="svg__group__path"></path>

        <rect height="3.63" width="0.74" class="svg__group__path" y="22.08" x="41.89"></rect>
        <polygon points="47.11,22.08 47.11,22.66 45.61,22.66 45.61,23.54 47.04,23.54 47.04,24.15
        45.61,24.15 45.61,25.71 44.82,25.71 44.82,22.08 	" class="svg__group__path"></polygon>

        <path d="M48.79,23.53c-0.48,0-0.6,0.5-0.6,0.95c0,0.39,0.15,0.79,0.56,0.8
        c0.38,0.01,0.62-0.32,0.62-0.91C49.37,23.95,49.23,23.53,48.79,23.53 M48.77,25.78c-0.9,0-1.33-0.57-1.33-1.39
        c0-0.88,0.63-1.37,1.39-1.37c0.74,0,1.3,0.52,1.3,1.33C50.12,25.4,49.44,25.78,48.77,25.78" class="svg__group__path"></path>
        <path d="M51.64,23.83c-0.1,0.08-0.25,0.23-0.25,0.52v1.35h-0.74v-2.12c0,0,0-0.29-0.03-0.5h0.71
        c0,0,0.02,0.28,0.03,0.48c0.19-0.43,0.46-0.46,0.86-0.46v0.61C52.21,23.72,51.87,23.66,51.64,23.83" class="svg__group__path"></path>
        <path d="M54.41,25.71c-0.05-0.12-0.05-0.34-0.05-0.34c-0.19,0.28-0.52,0.41-0.82,0.41
        c-0.77,0-0.92-0.52-0.92-1.1v-1.58h0.74v1.6c0,0.43,0.21,0.59,0.42,0.59c0.27,0,0.56-0.12,0.56-0.63v-1.56h0.74v2.28
        c0,0,0.01,0.23,0.05,0.34H54.41z" class="svg__group__path"></path>
        <path d="M59.24,25.71v-1.63c0-0.48-0.29-0.52-0.44-0.52c-0.44,0-0.55,0.41-0.55,0.75v1.39h-0.74
        v-1.68c0-0.22-0.11-0.46-0.44-0.46c-0.32,0-0.54,0.25-0.54,0.62v1.52H55.8v-2.35c0,0-0.01-0.19-0.03-0.27h0.73
        c0,0-0.01,0.25,0.02,0.36c0.18-0.3,0.54-0.43,0.83-0.43c0.49,0,0.73,0.32,0.82,0.48c0.3-0.41,0.63-0.48,0.9-0.48
        c0.66,0,0.91,0.53,0.91,0.93v1.75H59.24z" class="svg__group__path"></path>
        <path d="M63.37,23.53c-0.48,0-0.6,0.5-0.6,0.95c0,0.39,0.15,0.79,0.56,0.8
        c0.38,0.01,0.62-0.32,0.62-0.91C63.95,23.95,63.81,23.53,63.37,23.53 M63.35,25.78c-0.9,0-1.33-0.57-1.33-1.39
        c0-0.88,0.64-1.37,1.39-1.37c0.74,0,1.3,0.52,1.3,1.33C64.71,25.4,64.02,25.78,63.35,25.78" class="svg__group__path"></path>
        <path d="M66.66,22.53h-0.26c-0.21,0-0.27,0.11-0.27,0.28v0.27h0.48v0.5h-0.48v2.12H65.4v-2.12h-0.48
        v-0.5h0.48v-0.25c0-0.67,0.32-0.79,0.77-0.81c0.15-0.01,0.32-0.01,0.49,0.01V22.53z" class="svg__group__path"></path>
        <path d="M70.15,22.71c-0.14-0.04-0.55-0.07-0.85-0.03v2.39c0.13,0.01,0.44,0,0.44,0
        c0.79,0,1.09-0.49,1.09-1.22C70.83,23.3,70.63,22.83,70.15,22.71 M69.75,25.71h-1.24v-3.63H70c0.98,0,1.62,0.72,1.62,1.74
        C71.62,24.51,71.35,25.71,69.75,25.71" class="svg__group__path"></path>
        <path d="M73.37,23.5c-0.33,0-0.56,0.26-0.54,0.58h1.01C73.84,23.73,73.67,23.5,73.37,23.5
        M73.33,25.79c-0.88,0-1.3-0.58-1.3-1.34c0-0.83,0.51-1.44,1.33-1.44c0.71,0,1.14,0.48,1.21,1.01c0.03,0.15,0.02,0.38,0.02,0.55
        H72.8c-0.04,0.46,0.23,0.73,0.5,0.73c0.3,0,0.46-0.13,0.52-0.42h0.8C74.46,25.48,74,25.79,73.33,25.79" class="svg__group__path"></path>
        <path d="M76.93,25.71c-0.05-0.12-0.05-0.34-0.05-0.34c-0.19,0.28-0.52,0.41-0.82,0.41
        c-0.77,0-0.92-0.52-0.92-1.1v-1.58h0.74v1.6c0,0.43,0.21,0.59,0.42,0.59c0.27,0,0.56-0.12,0.56-0.63v-1.56h0.74v2.28
        c0,0,0.02,0.23,0.05,0.34H76.93z" class="svg__group__path"></path>
        <path d="M79.91,25.68c-0.44,0.08-0.76,0.07-0.96-0.01c-0.18-0.07-0.39-0.25-0.39-0.53v-1.55h-0.56
        v-0.5h0.56v-0.47l0.71-0.37v0.84h0.59v0.5h-0.59v1.29c0,0.37,0.41,0.34,0.63,0.26V25.68z" class="svg__group__path"></path>
        <path d="M80.99,24.87c-0.02,0.28,0.19,0.41,0.42,0.41c0.3,0,0.46-0.13,0.46-0.34
        c0-0.1-0.12-0.21-0.2-0.22c-0.51-0.18-0.99-0.18-1.24-0.5c-0.08-0.1-0.11-0.19-0.11-0.38c0-0.47,0.38-0.82,1.1-0.82
        c0.63,0,1.06,0.22,1.1,0.83h-0.7c0-0.28-0.2-0.37-0.41-0.36c-0.19,0.01-0.39,0.07-0.39,0.25c0,0.47,1.55,0.19,1.55,1.13
        c0,0.69-0.6,0.91-1.24,0.91c-0.53,0-1.04-0.25-1.08-0.75c-0.01-0.06,0-0.15,0-0.15H80.99z" class="svg__group__path" id="XMLID_190_"></path>
        <path d="M84.77,24.04c0-0.39-0.23-0.53-0.47-0.53c-0.48,0-0.57,0.52-0.57,0.87
        c0,0.18,0,0.91,0.53,0.91c0.34,0,0.52-0.25,0.5-0.56h0.75c-0.03,0.69-0.53,1.04-1.26,1.04c-0.98,0-1.27-0.7-1.27-1.35
        c0-1,0.56-1.41,1.37-1.41c0.73,0,1.14,0.37,1.16,1.01H84.77z" class="svg__group__path"></path>
        <path d="M86.78,22.08v1.33c0.17-0.23,0.37-0.39,0.82-0.39c0.65,0,0.88,0.46,0.88,0.93v1.75h-0.75
        v-1.62c0-0.3-0.15-0.56-0.43-0.56c-0.27,0-0.52,0.26-0.52,0.6v1.57h-0.75v-3.63H86.78z" class="svg__group__path"></path>
        <path d="M90.35,23.5c-0.34,0-0.56,0.26-0.54,0.58h1.01C90.82,23.73,90.65,23.5,90.35,23.5
        M90.32,25.79c-0.88,0-1.3-0.58-1.3-1.34c0-0.83,0.51-1.44,1.33-1.44c0.71,0,1.14,0.48,1.21,1.01c0.03,0.15,0.02,0.38,0.02,0.55
        h-1.79c-0.04,0.46,0.23,0.73,0.5,0.73c0.3,0,0.46-0.13,0.52-0.42h0.79C91.45,25.48,90.98,25.79,90.32,25.79" class="svg__group__path"></path>
        <path d="M94.4,24.09v1.03h0.75c0.41,0,0.58-0.23,0.58-0.51c0-0.37-0.29-0.52-0.63-0.52H94.4z
        M95.03,22.65c-0.19-0.01-0.63-0.01-0.63-0.01v0.88h0.7c0.29,0,0.48-0.16,0.48-0.41C95.59,22.74,95.35,22.66,95.03,22.65
        M95,25.71h-1.38v-3.63h1.86c0.5,0,0.88,0.39,0.88,0.88c0,0.34-0.18,0.69-0.7,0.82c0.62,0.06,0.84,0.51,0.84,0.84
        C96.51,25.31,96.04,25.71,95,25.71" class="svg__group__path"></path>
        <path d="M98.63,24.51h-0.19c-0.63-0.02-0.81,0.22-0.8,0.44c0,0.21,0.19,0.39,0.48,0.36
        c0.2-0.02,0.48-0.16,0.5-0.38V24.51z M98.74,25.71c0,0-0.03-0.17-0.03-0.31c-0.22,0.27-0.54,0.38-0.84,0.37
        c-0.59-0.01-0.95-0.3-0.95-0.81c0-0.54,0.44-0.86,1.41-0.86h0.31v-0.28c0-0.33-0.23-0.39-0.45-0.38c-0.24,0-0.44,0.14-0.41,0.45
        h-0.74c-0.05-0.57,0.44-0.88,1.21-0.87c0.52,0.01,1.12,0.16,1.12,0.81v1.39c0,0.24,0.05,0.49,0.05,0.49H98.74z" class="svg__group__path"></path>
        <path d="M101.78,25.71v-1.72c0-0.35-0.29-0.47-0.48-0.44c-0.22,0.03-0.5,0.21-0.5,0.48v1.68h-0.74
        v-2.36c0,0-0.01-0.17-0.03-0.26h0.72l0.02,0.34c0.18-0.29,0.59-0.42,0.86-0.42c0.54,0,0.89,0.3,0.89,0.88v1.81H101.78z" class="svg__group__path"></path>

        <polygon points="104.94,25.71 103.98,24.3 103.98,25.71 103.22,25.71 103.22,22.08 103.98,22.08
        103.98,24.2 104.91,23.09 105.87,23.09 104.78,24.23 105.9,25.71 	" class="svg__group__path"></polygon>
        <path d="M3.1,12.35L2.2,14.84h1.8L3.1,12.35z M4.86,17.15l-0.49-1.31H1.84l-0.47,1.31H0l2.35-5.97
        h1.52l2.35,5.97H4.86z" class="svg__group__path"></path>
        <rect height="5.97" width="1.22" class="svg__group__path" y="11.18" x="6.78"></rect>

        <path d="M11.4,11.92h-0.42c-0.35,0-0.44,0.19-0.44,0.47v0.45h0.79v0.83h-0.79v3.49H9.32v-3.49H8.53
        v-0.83h0.79v-0.42c0-1.1,0.53-1.3,1.28-1.34c0.25-0.01,0.52-0.01,0.8,0.03V11.92z" class="svg__group__path"></path>
        <path d="M13.52,14.06c-0.17,0.13-0.42,0.38-0.42,0.86v2.23h-1.22v-3.49c0,0,0-0.48-0.05-0.83h1.17
        c0,0,0.03,0.47,0.04,0.79c0.31-0.71,0.77-0.76,1.41-0.76v1C14.46,13.87,13.9,13.77,13.52,14.06" class="svg__group__path" id="XMLID_167_"></path>
        <path d="M16.99,13.51c-0.55,0-0.92,0.43-0.88,0.95h1.66C17.76,13.89,17.48,13.51,16.99,13.51
        M16.93,17.28c-1.44,0-2.13-0.96-2.13-2.2c0-1.36,0.84-2.36,2.19-2.36c1.17,0,1.87,0.79,2,1.67c0.04,0.25,0.03,0.62,0.03,0.9
        h-2.95c-0.06,0.77,0.38,1.2,0.82,1.2c0.49,0,0.76-0.21,0.85-0.69h1.31C18.79,16.77,18.03,17.28,16.93,17.28" class="svg__group__path"></path>
        <path d="M20.81,15.01c0,0.71,0.29,1.41,0.88,1.41c0.63,0,1.01-0.66,1.01-1.46
        c0.01-0.73-0.31-1.41-0.94-1.41C21.12,13.54,20.81,14.27,20.81,15.01 M22.74,17.15v-0.67c-0.28,0.48-0.79,0.77-1.38,0.77
        c-1.29,0-1.79-1.2-1.79-2.23c0-1.49,0.94-2.3,1.85-2.3c0.34,0,0.71,0.08,1.14,0.49c0,0,0.12,0.09,0.18,0.26v-2.3h1.17v5.97H22.74z
        " class="svg__group__path"></path>

        <polygon points="28.84,11.18 28.84,13.5 31.42,13.5 31.42,11.18 32.73,11.18 32.73,17.15 31.42,17.15
        31.42,14.51 28.84,14.51 28.84,17.15 27.53,17.15 27.53,11.18 	" class="svg__group__path"></polygon>

        <path d="M35.78,13.51c-0.55,0-0.92,0.43-0.88,0.95h1.66C36.56,13.89,36.27,13.51,35.78,13.51
        M35.72,17.28c-1.45,0-2.13-0.96-2.13-2.2c0-1.36,0.84-2.36,2.18-2.36c1.17,0,1.87,0.79,2,1.67c0.04,0.25,0.03,0.62,0.03,0.9
        h-2.95c-0.06,0.77,0.38,1.2,0.82,1.2c0.49,0,0.76-0.21,0.85-0.69h1.31C37.58,16.77,36.82,17.28,35.72,17.28" class="svg__group__path"></path>
        <path d="M40.25,14.06c-0.17,0.13-0.42,0.38-0.42,0.86v2.23h-1.22v-3.49c0,0,0-0.48-0.05-0.83h1.16
        c0,0,0.04,0.47,0.05,0.79c0.31-0.71,0.76-0.76,1.41-0.76v1C41.18,13.87,40.62,13.77,40.25,14.06" class="svg__group__path"></path>
        <path d="M43.41,14.06c-0.17,0.13-0.42,0.38-0.42,0.86v2.23h-1.22v-3.49c0,0,0-0.48-0.05-0.83h1.16
        c0,0,0.03,0.47,0.04,0.79c0.32-0.71,0.77-0.76,1.41-0.76v1C44.35,13.87,43.79,13.77,43.41,14.06" class="svg__group__path"></path>
        <path d="M46.17,11.18v2.19c0.29-0.38,0.61-0.65,1.34-0.65c1.07,0,1.45,0.76,1.45,1.53v2.89h-1.23
        v-2.66c0-0.49-0.25-0.92-0.71-0.92c-0.44,0-0.85,0.42-0.85,0.99v2.59h-1.24v-5.97H46.17z" class="svg__group__path"></path>
        <path d="M52.51,15.18H52.2c-1.04-0.03-1.33,0.36-1.31,0.72c0,0.35,0.31,0.64,0.79,0.59
        c0.33-0.03,0.8-0.26,0.83-0.62V15.18z M52.68,17.15c0,0-0.05-0.27-0.05-0.5c-0.37,0.45-0.89,0.62-1.38,0.61
        c-0.97-0.01-1.57-0.49-1.57-1.33c0-0.89,0.73-1.42,2.33-1.42h0.5v-0.46c0-0.54-0.38-0.64-0.73-0.63
        c-0.39,0.01-0.72,0.23-0.68,0.75h-1.22c-0.09-0.94,0.73-1.45,1.99-1.44c0.87,0.01,1.85,0.26,1.85,1.33v2.3
        c0.01,0.39,0.08,0.8,0.08,0.8H52.68z" class="svg__group__path"></path>
        <path d="M57.64,17.15c-0.08-0.2-0.08-0.56-0.08-0.56c-0.31,0.47-0.86,0.67-1.35,0.67
        c-1.27,0-1.51-0.86-1.51-1.81v-2.61h1.22v2.64c0,0.71,0.34,0.98,0.7,0.98c0.44,0,0.93-0.2,0.93-1.04v-2.58h1.22v3.76
        c0,0,0.03,0.37,0.09,0.55H57.64z" class="svg__group__path"></path>
        <path d="M60.7,15.77c-0.03,0.47,0.31,0.68,0.7,0.68c0.49,0,0.77-0.22,0.77-0.55
        c0-0.17-0.21-0.34-0.32-0.37c-0.84-0.29-1.63-0.3-2.03-0.83c-0.13-0.17-0.18-0.32-0.18-0.63c0-0.78,0.62-1.35,1.82-1.35
        c1.03,0,1.75,0.36,1.8,1.37H62.1c0-0.47-0.33-0.6-0.67-0.6c-0.31,0.01-0.65,0.11-0.65,0.42c0,0.77,2.56,0.32,2.56,1.85
        c0,1.14-0.99,1.5-2.04,1.5c-0.87,0-1.71-0.42-1.79-1.24c-0.02-0.09-0.01-0.26-0.01-0.26H60.7z" class="svg__group__path"></path>
        <path d="M66.03,13.51c-0.55,0-0.92,0.43-0.88,0.95h1.66C66.8,13.89,66.52,13.51,66.03,13.51
        M65.97,17.28c-1.44,0-2.14-0.96-2.14-2.2c0-1.36,0.84-2.36,2.19-2.36c1.17,0,1.87,0.79,2,1.67c0.04,0.25,0.03,0.62,0.03,0.9H65.1
        c-0.06,0.77,0.38,1.2,0.82,1.2c0.49,0,0.76-0.21,0.85-0.69h1.31C67.83,16.77,67.07,17.28,65.97,17.28" class="svg__group__path"></path>
        <path d="M71.7,17.15v-2.84c0-0.57-0.49-0.77-0.79-0.73c-0.37,0.05-0.82,0.35-0.82,0.8v2.77h-1.22
        v-3.89c0,0-0.02-0.29-0.05-0.42H70l0.04,0.57c0.3-0.47,0.97-0.69,1.41-0.69c0.88,0,1.46,0.5,1.46,1.44v2.99H71.7z" class="svg__group__path"></path>
        <path d="M79.82,12.87c0.03-0.68-0.37-0.95-0.96-0.95c-0.47,0-1,0.2-1.05,0.76
        c-0.01,0.1,0,0.39,0.32,0.56c1.12,0.58,3.13,0.38,3.13,2.05c0,1.38-1.24,2.01-2.61,2.01c-1.28,0-2.34-0.6-2.36-1.79V15.2h1.31
        c-0.04,0.78,0.45,1.11,1.2,1.11c0.59,0,1.03-0.23,1.09-0.67c0.05-0.37-0.11-0.59-0.44-0.75c-0.78-0.28-1.61-0.36-2.31-0.77
        c-0.22-0.17-0.66-0.49-0.66-1.22c0-0.72,0.42-1.22,0.94-1.54c0.46-0.26,1.02-0.36,1.5-0.36c1.34,0,2.19,0.7,2.19,1.87H79.82z" class="svg__group__path"></path>
        <path d="M84.13,13.56c-0.79,0-0.99,0.83-0.99,1.56c0,0.65,0.25,1.31,0.93,1.33
        c0.63,0.02,1.02-0.53,1.02-1.5C85.09,14.25,84.85,13.56,84.13,13.56 M84.09,17.27c-1.49,0-2.2-0.94-2.2-2.29
        c0-1.45,1.05-2.25,2.29-2.25c1.22,0,2.14,0.85,2.14,2.19C86.33,16.64,85.21,17.27,84.09,17.27" class="svg__group__path"></path>
        <path d="M89.8,14.4c0-0.64-0.38-0.87-0.77-0.87c-0.78,0-0.95,0.86-0.95,1.44c0,0.3,0,1.51,0.87,1.51
        c0.56,0,0.86-0.41,0.82-0.92h1.23c-0.05,1.14-0.88,1.72-2.07,1.72c-1.62,0-2.1-1.16-2.1-2.22c0-1.64,0.93-2.32,2.25-2.32
        c1.2,0,1.87,0.6,1.91,1.67H89.8z" class="svg__group__path"></path>

        <path d="M91.75,12.84h1.23v4.31h-1.23V12.84z M91.75,11.04h1.23v1.06h-1.23V11.04z" class="svg__group__path"></path>
        <path d="M95.95,13.51c-0.55,0-0.92,0.43-0.88,0.95h1.66C96.72,13.89,96.44,13.51,95.95,13.51
        M95.89,17.28c-1.45,0-2.13-0.96-2.13-2.2c0-1.36,0.84-2.36,2.18-2.36c1.17,0,1.87,0.79,2,1.67c0.04,0.25,0.03,0.62,0.03,0.9
        h-2.95c-0.06,0.77,0.38,1.2,0.82,1.2c0.49,0,0.76-0.21,0.85-0.69H98C97.75,16.77,96.98,17.28,95.89,17.28" class="svg__group__path"></path>
        <path d="M101.39,17.1c-0.72,0.14-1.25,0.11-1.58-0.02c-0.29-0.11-0.64-0.41-0.64-0.88v-2.55h-0.92
        v-0.82h0.92v-0.77l1.17-0.6v1.38h0.98v0.82h-0.98v2.12c0,0.61,0.68,0.55,1.04,0.43V17.1z" class="svg__group__path"></path>
        <path d="M103.03,12.84l1.09,2.96l1.08-2.96h1.29c-0.58,1.39-2.48,5.89-2.48,5.89h-1.27
        c0,0,0.48-1.13,0.75-1.69c0.01-0.12-1.78-4.2-1.78-4.2H103.03z" class="svg__group__path"></path>
    </g>
</svg>
